<?xml version="1.0" encoding="UTF-8"?>
<svg version="1.1" xmlns="http://www.w3.org/2000/svg" width="32" height="32">
<path d="M0 0 C0.87527344 -0.01417969 1.75054688 -0.02835937 2.65234375 -0.04296875 C5.0625 0.1875 5.0625 0.1875 8.0625 2.1875 C8.0625 3.1775 8.0625 4.1675 8.0625 5.1875 C9.3825 5.5175 10.7025 5.8475 12.0625 6.1875 C12.0625 7.5075 12.0625 8.8275 12.0625 10.1875 C13.0525 10.5175 14.0425 10.8475 15.0625 11.1875 C15.0625 13.1675 15.0625 15.1475 15.0625 17.1875 C14.0725 17.5175 13.0825 17.8475 12.0625 18.1875 C11.7325 19.8375 11.4025 21.4875 11.0625 23.1875 C10.0725 23.1875 9.0825 23.1875 8.0625 23.1875 C7.7325 24.5075 7.4025 25.8275 7.0625 27.1875 C3.00270228 28.17169339 -0.76449392 28.41933367 -4.9375 28.1875 C-5.9275 27.5275 -6.9175 26.8675 -7.9375 26.1875 C-7.9375 25.1975 -7.9375 24.2075 -7.9375 23.1875 C-9.2575 22.8575 -10.5775 22.5275 -11.9375 22.1875 C-11.9375 20.8675 -11.9375 19.5475 -11.9375 18.1875 C-12.9275 17.8575 -13.9175 17.5275 -14.9375 17.1875 C-14.9375 15.2075 -14.9375 13.2275 -14.9375 11.1875 C-13.9475 10.8575 -12.9575 10.5275 -11.9375 10.1875 C-11.6075 8.5375 -11.2775 6.8875 -10.9375 5.1875 C-9.9475 5.1875 -8.9575 5.1875 -7.9375 5.1875 C-7.751875 4.2284375 -7.751875 4.2284375 -7.5625 3.25 C-7.35625 2.569375 -7.15 1.88875 -6.9375 1.1875 C-4.47380468 -0.04434766 -2.7480499 0.02017658 0 0 Z M3.0625 2.1875 C0.71276182 4.08505144 0.71276182 4.08505144 0.9375 7.3125 C0.97875 8.26125 1.02 9.21 1.0625 10.1875 C1.7225 10.1875 2.3825 10.1875 3.0625 10.1875 C3.0625 8.5375 3.0625 6.8875 3.0625 5.1875 C4.0525 5.1875 5.0425 5.1875 6.0625 5.1875 C6.0625 4.5275 6.0625 3.8675 6.0625 3.1875 C5.0725 2.8575 4.0825 2.5275 3.0625 2.1875 Z M6.0625 6.1875 C5.7325 7.8375 5.4025 9.4875 5.0625 11.1875 C3.7425 11.1875 2.4225 11.1875 1.0625 11.1875 C1.0625 11.8475 1.0625 12.5075 1.0625 13.1875 C6.11259595 14.12536082 6.11259595 14.12536082 11.0625 13.1875 C11.0625 14.1775 11.0625 15.1675 11.0625 16.1875 C7.7625 15.8575 4.4625 15.5275 1.0625 15.1875 C1.0625 15.8475 1.0625 16.5075 1.0625 17.1875 C2.7125 17.1875 4.3625 17.1875 6.0625 17.1875 C6.0625 18.8375 6.0625 20.4875 6.0625 22.1875 C7.3825 21.8575 8.7025 21.5275 10.0625 21.1875 C10.0625 19.8675 10.0625 18.5475 10.0625 17.1875 C11.0525 16.8575 12.0425 16.5275 13.0625 16.1875 C12.7325 14.5375 12.4025 12.8875 12.0625 11.1875 C11.4025 11.1875 10.7425 11.1875 10.0625 11.1875 C10.0625 9.8675 10.0625 8.5475 10.0625 7.1875 C8.7425 6.8575 7.4225 6.5275 6.0625 6.1875 Z M1.0625 19.1875 C0.81219023 21.60369823 0.81219023 21.60369823 1.0625 24.1875 C2.5475 25.1775 2.5475 25.1775 4.0625 26.1875 C4.7225 25.8575 5.3825 25.5275 6.0625 25.1875 C6.0625 24.1975 6.0625 23.2075 6.0625 22.1875 C5.0725 22.1875 4.0825 22.1875 3.0625 22.1875 C3.0625 21.1975 3.0625 20.2075 3.0625 19.1875 C2.4025 19.1875 1.7425 19.1875 1.0625 19.1875 Z M-3.9375 20.1875 C-2.9375 22.1875 -2.9375 22.1875 -2.9375 22.1875 Z " fill="#000000" transform="translate(15.9375,1.8125)"/>
</svg>
